<svg xmlns="http://www.w3.org/2000/svg" width="14.391" height="14.376" viewBox="0 0 14.391 14.376">
  <path id="Path_78" data-name="Path 78" d="M417.332,1278.145v-1.106h1.119v1.086h7.425v-1.09h1.119v1.11h.639a1.681,1.681,0,0,1,1.729,1.715q0,4.917,0,9.835a1.678,1.678,0,0,1-1.728,1.715q-5.466,0-10.931,0a1.681,1.681,0,0,1-1.729-1.742q0-4.89,0-9.779a1.685,1.685,0,0,1,1.756-1.744Zm-1.236,4.168v.307q0,3.469,0,6.938c0,.538.19.73.723.73h10.7c.529,0,.719-.194.72-.733q0-3.469,0-6.938v-.3Zm1.242-3.02a5.911,5.911,0,0,0-.834.009.465.465,0,0,0-.4.455c-.021.465-.006.931-.006,1.407h12.135c0-.474.012-.932,0-1.388a.531.531,0,0,0-.489-.5c-.239-.019-.48,0-.751,0v1.1h-1.119v-1.087h-7.426v1.082h-1.109Z" transform="translate(-414.973 -1277.035)" fill="#f58216"/>
</svg>
